<svg width="40" height="40" viewBox="0 0 40 40" fill="none" xmlns="http://www.w3.org/2000/svg">
<g clip-path="url(#clip0_1_2511)">
<path opacity="0.4" d="M7.64676 20L4.55844 16.9116C1.14719 13.5004 1.14719 7.9697 4.55844 4.55844C7.9697 1.14719 13.5004 1.14719 16.9116 4.55844L35.4416 23.0884C38.8528 26.4996 38.8528 32.0304 35.4416 35.4416C32.0304 38.8528 26.4996 38.8528 23.0884 35.4416L16.1396 28.4928C14.0076 26.3608 14.0076 22.9042 16.1396 20.772C18.2716 18.64 21.7284 18.64 23.8604 20.772L27.7208 24.6324" stroke="black" stroke-width="3" stroke-linecap="round" stroke-linejoin="round"/>
<path d="M35.44 23.089C38.8512 26.5004 38.8512 32.031 35.44 35.4424C32.0288 38.8536 26.498 38.8536 23.0868 35.4424L16.138 28.4936C14.006 26.3616 14.006 22.9048 16.138 20.7728C18.2702 18.6408 21.7268 18.6408 23.8588 20.7728L27.7192 24.6332" stroke="black" stroke-width="3" stroke-linecap="round" stroke-linejoin="round"/>
</g>
<defs>
<clipPath id="clip0_1_2511">
<rect width="40" height="40" fill="white"/>
</clipPath>
</defs>
</svg>
