<svg width="41" height="40" viewBox="0 0 41 40" fill="none" xmlns="http://www.w3.org/2000/svg">
<g clip-path="url(#clip0_5_1144)">
<path d="M37.1768 23C37.528 23.0002 37.9594 23.0006 38.3122 22.9564L38.319 22.9556C38.5718 22.924 39.724 22.7804 40.2726 21.6492C40.8226 20.5156 40.2186 19.5152 40.088 19.2988L39.4098 18.362C38.8206 17.6102 38.0092 16.5814 37.2482 15.7993C36.8686 15.4091 36.434 15.0066 35.9722 14.6889C35.5618 14.4065 34.8614 14 34 14C33.1386 14 32.4382 14.4065 32.0278 14.6889C31.566 15.0066 31.1314 15.4091 30.7518 15.7993C29.9908 16.5814 29.1796 17.6102 28.5902 18.3618L27.912 19.2988C27.7814 19.5152 27.1774 20.5156 27.7274 21.6492C28.276 22.7804 29.4282 22.924 29.681 22.9556L29.6878 22.9564C30.0406 23.0006 30.472 23.0002 30.8232 23H37.1768Z" fill="black"/>
<path opacity="0.4" d="M31.9994 22.996C31.996 25.332 31.9714 27.0238 31.7982 28.3124C31.6084 29.7244 31.2736 30.3786 30.8284 30.8236C30.3832 31.2688 29.7292 31.6036 28.3172 31.7934C26.8474 31.991 24.885 31.9952 22 31.9952H10C8.89544 31.9952 8 32.8906 8 33.9952C8 35.0998 8.89544 35.9952 10 35.9952H22.1412C24.8494 35.9952 27.0826 35.9954 28.8502 35.7578C30.7058 35.5082 32.3446 34.9642 33.6568 33.652C34.969 32.3398 35.513 30.701 35.7624 28.8454C35.9738 27.274 35.9972 25.3102 35.9998 22.996H31.9994Z" fill="black"/>
<path opacity="0.4" fill-rule="evenodd" clip-rule="evenodd" d="M6 8C7.10456 8 8 8.89544 8 10V30C8 31.1046 7.10458 32 6 32C4.89544 32 4 31.1046 4 30V10C4 8.89544 4.89544 8 6 8Z" fill="black"/>
<path fill-rule="evenodd" clip-rule="evenodd" d="M0.5 6C0.5 2.96244 2.96244 0.5 6 0.5C9.03756 0.5 11.5 2.96244 11.5 6C11.5 9.03756 9.03756 11.5 6 11.5C2.96244 11.5 0.5 9.03756 0.5 6Z" fill="black"/>
<path fill-rule="evenodd" clip-rule="evenodd" d="M28.5 6C28.5 2.96244 30.9624 0.5 34 0.5C37.0376 0.5 39.5 2.96244 39.5 6C39.5 9.03756 37.0376 11.5 34 11.5C30.9624 11.5 28.5 9.03756 28.5 6Z" fill="black"/>
<path fill-rule="evenodd" clip-rule="evenodd" d="M0.5 34C0.5 30.9624 2.96244 28.5 6 28.5C9.03756 28.5 11.5 30.9624 11.5 34C11.5 37.0376 9.03756 39.5 6 39.5C2.96244 39.5 0.5 37.0376 0.5 34Z" fill="black"/>
</g>
<defs>
<clipPath id="clip0_5_1144">
<rect width="41" height="40" fill="white"/>
</clipPath>
</defs>
</svg>
