<svg width="44" height="44" viewBox="0 0 44 44" fill="none" xmlns="http://www.w3.org/2000/svg">
<g clip-path="url(#clip0_6_1156)">
<path d="M16 28C16 22.3432 16 19.5148 17.7574 17.7574C19.5148 16 22.3432 16 28 16H30C35.6568 16 38.4852 16 40.2426 17.7574C42 19.5148 42 22.3432 42 28V30C42 35.6568 42 38.4852 40.2426 40.2426C38.4852 42 35.6568 42 30 42H28C22.3432 42 19.5148 42 17.7574 40.2426C16 38.4852 16 35.6568 16 30V28Z" stroke="black" stroke-width="3" stroke-linecap="round" stroke-linejoin="round"/>
<path opacity="0.4" d="M31.9998 16C31.995 10.0858 31.9056 7.02242 30.184 4.92486C29.8516 4.51978 29.4802 4.14836 29.0752 3.81592C26.8624 2 23.575 2 17 2C10.425 2 7.13756 2 4.92486 3.81592C4.51978 4.14834 4.14836 4.51978 3.81592 4.92486C2 7.13756 2 10.425 2 17C2 23.575 2 26.8624 3.81592 29.0752C4.14834 29.4802 4.51978 29.8516 4.92486 30.184C7.02242 31.9056 10.0858 31.995 16 31.9998" stroke="black" stroke-width="3" stroke-linecap="round" stroke-linejoin="round"/>
</g>
<defs>
<clipPath id="clip0_6_1156">
<rect width="44" height="44" fill="white"/>
</clipPath>
</defs>
</svg>
