<svg width="40" height="44" viewBox="0 0 40 44" fill="none" xmlns="http://www.w3.org/2000/svg">
<g clip-path="url(#clip0_10_1140)">
<path opacity="0.4" d="M35.165 29.3128C35.0116 31.8192 34.8898 33.8082 34.6404 35.3968C34.3844 37.0262 33.9748 38.383 33.1554 39.5698C32.4058 40.6556 31.4408 41.572 30.3216 42.2606C29.0982 43.0134 27.7322 43.3426 26.1062 43.5L13.8548 43.4998C12.227 43.342 10.8594 43.0122 9.6352 42.258C8.51526 41.5682 7.54988 40.6502 6.80056 39.5626C5.98146 38.3738 5.57312 37.015 5.31914 35.3834C5.07148 33.7924 4.95246 31.8006 4.80244 29.2906L3.5 7.5H36.5L35.165 29.3128Z" fill="black"/>
<path fill-rule="evenodd" clip-rule="evenodd" d="M15 33.9296C14.1716 33.9296 13.5 33.2582 13.5 32.4296V20.4296C13.5 19.6012 14.1716 18.9296 15 18.9296C15.8284 18.9296 16.5 19.6012 16.5 20.4296V32.4296C16.5 33.2582 15.8284 33.9296 15 33.9296Z" fill="black"/>
<path fill-rule="evenodd" clip-rule="evenodd" d="M25 18.9296C25.8284 18.9296 26.5 19.6012 26.5 20.4296V32.4296C26.5 33.2582 25.8284 33.9296 25 33.9296C24.1716 33.9296 23.5 33.2582 23.5 32.4296V20.4296C23.5 19.6012 24.1716 18.9296 25 18.9296Z" fill="black"/>
<path fill-rule="evenodd" clip-rule="evenodd" d="M22.6946 0.565535C23.8248 0.666615 24.887 1.01152 25.7992 1.69182C26.4738 2.19496 26.9424 2.81084 27.3428 3.47786C27.7138 4.09596 28.0874 4.8666 28.511 5.7408L29.3646 7.5014H38C39.1046 7.5014 40 8.39684 40 9.5014C40 10.606 39.1046 11.5014 38 11.5014C25.9996 11.5014 14.0004 11.5014 2 11.5014C0.89544 11.5014 0 10.606 0 9.5014C0 8.39684 0.89544 7.5014 2 7.5014H10.8195L11.5311 5.94032C11.9442 5.03392 12.3081 4.23564 12.6735 3.59508C13.0677 2.90414 13.5344 2.26474 14.2172 1.74092C15.1406 1.03252 16.2242 0.673375 17.3798 0.568175C18.2498 0.488975 19.1268 0.499875 20 0.501275C21.0216 0.502915 21.94 0.498035 22.6946 0.565535ZM15.2155 7.5014H24.9194C24.466 6.56662 24.176 5.97414 23.9132 5.5364C23.5286 4.89574 23.0678 4.6149 22.3382 4.54964C21.8196 4.50326 21.1438 4.5014 20.069 4.5014C18.9674 4.5014 18.274 4.50332 17.7424 4.5517C16.9942 4.61982 16.5278 4.91136 16.1478 5.57732C15.8988 6.01374 15.6277 6.59794 15.2155 7.5014Z" fill="black"/>
</g>
<defs>
<clipPath id="clip0_10_1140">
<rect width="40" height="44" fill="white"/>
</clipPath>
</defs>
</svg>
