<svg width="40" height="40" viewBox="0 0 40 40" fill="none" xmlns="http://www.w3.org/2000/svg">
<g clip-path="url(#clip0_6_1160)">
<path d="M28.8498 5.21018L30.8298 3.2302C32.4702 1.58994 35.1296 1.58994 36.7698 3.2302C38.41 4.87048 38.41 7.52986 36.7698 9.17014L34.7898 11.1501M28.8498 5.21018L15.5312 18.5288C14.5161 19.544 13.7961 20.8156 13.4479 22.2082L12 28L17.7918 26.552C19.1844 26.204 20.456 25.4838 21.4712 24.4688L34.7898 11.1501M28.8498 5.21018L34.7898 11.1501" stroke="black" stroke-width="3" stroke-linejoin="round"/>
<path opacity="0.4" d="M33.9998 23C33.9998 29.575 33.9998 32.8624 32.184 35.0752C31.8516 35.4802 31.4802 35.8516 31.075 36.184C28.8624 38 25.5748 38 18.9998 38H18C10.4575 38 6.68632 38 4.34318 35.6568C2.00006 33.3138 2 29.5424 2 22V21C2 14.425 2 11.1376 3.81588 8.92488C4.14834 8.5198 4.5198 8.14834 4.92488 7.81588C7.13758 6 10.425 6 17 6" stroke="black" stroke-width="3" stroke-linecap="round" stroke-linejoin="round"/>
</g>
<defs>
<clipPath id="clip0_6_1160">
<rect width="40" height="40" fill="white"/>
</clipPath>
</defs>
</svg>
