<svg width="42" height="42" viewBox="0 0 42 42" fill="none" xmlns="http://www.w3.org/2000/svg">
<g clip-path="url(#clip0_1_2520)">
<path opacity="0.4" d="M36.3936 0.566282C37.794 0.701262 39.2598 1.07836 40.1946 2.08514C41.1018 3.06212 41.3998 4.53112 41.4776 5.92954C41.5596 7.40414 41.412 9.1646 41.1136 11.0602C40.5154 14.8612 39.2736 19.4346 37.7834 23.8192C36.2924 28.2056 34.5304 32.4694 32.8664 35.6494C32.0384 37.2318 31.2062 38.601 30.4142 39.5906C30.02 40.0828 29.595 40.5332 29.143 40.8688C28.7142 41.1876 28.0888 41.531 27.3366 41.4978C26.1284 41.4444 25.2104 40.7826 24.5356 39.9066C23.889 39.0672 23.3784 37.929 22.9246 36.6142C22.0146 33.9776 21.1596 30.0894 20.0576 25.0782C19.8208 24.0014 19.6216 23.636 19.4426 23.4432C19.271 23.2582 18.9448 23.0452 17.9292 22.7604C17.3036 22.5848 16.3558 22.3916 15.1604 22.148C14.7928 22.073 14.4017 21.9934 13.9895 21.908C12.2869 21.5552 10.3065 21.12 8.42323 20.5584C6.55997 20.0028 4.68569 19.2934 3.24655 18.352C1.83659 17.4298 0.512588 16.0558 0.500048 14.1116C0.495288 13.371 0.842468 12.7566 1.17247 12.3247C1.51845 11.872 1.97839 11.4466 2.48243 11.0517C3.49469 10.2586 4.88711 9.43296 6.49253 8.61694C9.71829 6.9773 14.0256 5.2659 18.4444 3.84352C22.8604 2.42204 27.4576 1.26674 31.2626 0.767642C33.16 0.518782 34.9222 0.424462 36.3936 0.566282Z" fill="black"/>
<path d="M20.0008 24.8268C19.789 23.9426 19.6076 23.6202 19.4434 23.4432C19.2718 23.2582 18.9454 23.0452 17.93 22.7604C17.6046 22.669 17.1922 22.573 16.7031 22.4676L25.5856 13.5857C26.3668 12.8047 27.633 12.8048 28.414 13.5858C29.195 14.3669 29.195 15.6332 28.414 16.4143L20.0008 24.8268Z" fill="black"/>
</g>
<defs>
<clipPath id="clip0_1_2520">
<rect width="42" height="42" fill="white"/>
</clipPath>
</defs>
</svg>
