<svg width="44" height="44" viewBox="0 0 44 44" fill="none" xmlns="http://www.w3.org/2000/svg">
<g clip-path="url(#clip0_1_2535)">
<path d="M22 42C33.0457 42 42 33.0457 42 22C42 10.9543 33.0457 2 22 2C10.9543 2 2 10.9543 2 22C2 33.0457 10.9543 42 22 42Z" stroke="black" stroke-width="3"/>
<path opacity="0.4" d="M16.7777 28.3258C17.7866 29 19.191 29 22 29C24.809 29 26.2134 29 27.2222 28.3258C27.659 28.034 28.034 27.659 28.3258 27.2222C29 26.2134 29 24.809 29 22C29 19.191 29 17.7866 28.3258 16.7777C28.034 16.341 27.659 15.966 27.2222 15.6741C26.2134 15 24.809 15 22 15C19.191 15 17.7866 15 16.7777 15.6741C16.341 15.966 15.966 16.341 15.6741 16.7777C15 17.7866 15 19.191 15 22C15 24.809 15 26.2134 15.6741 27.2222C15.966 27.659 16.341 28.034 16.7777 28.3258Z" stroke="black" stroke-width="3" stroke-linecap="round" stroke-linejoin="round"/>
</g>
<defs>
<clipPath id="clip0_1_2535">
<rect width="44" height="44" fill="white"/>
</clipPath>
</defs>
</svg>
