<svg xmlns="http://www.w3.org/2000/svg" version="1.1" xmlns:xlink="http://www.w3.org/1999/xlink" width="1000" height="1000"><style>
    #light-icon {
      display: inline;
    }
    #dark-icon {
      display: none;
    }

    @media (prefers-color-scheme: dark) {
      #light-icon {
        display: none;
      }
      #dark-icon {
        display: inline;
      }
    }
  </style><g id="light-icon"><svg xmlns="http://www.w3.org/2000/svg" version="1.1" xmlns:xlink="http://www.w3.org/1999/xlink" width="1000" height="1000"><g><g transform="matrix(23.80952380952381,0,0,23.80952380952381,11.90476190476187,0)"><svg xmlns="http://www.w3.org/2000/svg" version="1.1" xmlns:xlink="http://www.w3.org/1999/xlink" width="41" height="42"><svg width="41" height="42" viewBox="0 0 41 42" fill="none" xmlns="http://www.w3.org/2000/svg">
<g clip-path="url(#clip0_45_1195)">
<path opacity="0.4" fill-rule="evenodd" clip-rule="evenodd" d="M27.2077 5.94368C23.1091 7.28236 18.3727 10.2367 14.0547 14.5546C13.4658 15.1435 12.9016 15.7409 12.3627 16.3443C11.6937 17.0934 10.5441 17.1583 9.79502 16.4894C9.04593 15.8204 8.98099 14.6708 9.64997 13.9217C10.2345 13.2671 10.8458 12.6199 11.4829 11.9828C16.1189 7.34682 21.3307 4.0371 26.0785 2.48638C30.7183 0.9709 35.4847 0.987799 38.4963 3.9995C41.1343 6.63744 41.4669 10.6378 40.5113 14.6455C40.2783 15.6225 39.2975 16.2256 38.3205 15.9927C37.3435 15.7597 36.7405 14.7789 36.9735 13.8019C37.7995 10.3376 37.2639 7.91066 35.9245 6.57128C34.3915 5.03816 31.4139 4.56978 27.2077 5.94368ZM3.9982 26.1156C4.9631 26.3942 5.51936 27.4024 5.24064 28.3674C4.11998 32.247 4.62348 34.9764 6.0714 36.4244C7.60452 37.9574 10.582 38.4258 14.7882 37.052C18.8867 35.7132 23.6233 32.759 27.9411 28.441C28.5301 27.8522 29.0943 27.2548 29.6331 26.6514C30.3021 25.9022 31.4517 25.8372 32.2009 26.5062C32.9499 27.1752 33.0149 28.3248 32.3459 29.074C31.7613 29.7286 31.1501 30.3756 30.5129 31.0128C25.8769 35.6488 20.6651 38.9586 15.9175 40.5092C11.2777 42.0248 6.5113 42.0078 3.4996 38.9962C0.650984 36.1476 0.486064 31.7214 1.74644 27.358C2.02516 26.3932 3.0333 25.8368 3.9982 26.1156Z" fill="black"></path>
<path fill-rule="evenodd" clip-rule="evenodd" d="M23.5333 14.6559C24.3001 15.3045 24.3959 16.4519 23.7475 17.2188L22.1707 19.0828C21.9519 19.3416 21.8425 19.471 21.8913 19.5764C21.9403 19.6818 22.1107 19.6816 22.4513 19.6814C22.7759 19.6812 23.1745 19.6808 23.5049 19.7232C23.8039 19.7614 24.6975 19.8994 25.2297 20.7588C25.8349 21.7366 25.4097 22.6662 25.2345 22.987C25.0477 23.3288 24.8069 23.6542 24.5541 23.951L20.9931 28.1344C20.3421 28.899 19.1943 28.9914 18.4295 28.3402C17.6649 27.6892 17.5725 26.5416 18.2237 25.7768L19.8573 23.8574C20.0315 23.6528 20.1187 23.5506 20.1007 23.4636C20.0951 23.4362 20.0831 23.4106 20.0659 23.3886C20.0113 23.3184 19.8771 23.3184 19.6083 23.3184C19.2727 23.3184 18.8397 23.3222 18.4851 23.2768C16.8874 23.0726 15.963 21.4636 16.7556 20.0128C16.9415 19.6728 17.1819 19.3494 17.4323 19.0534L20.9705 14.87C21.6191 14.1032 22.7665 14.0073 23.5333 14.6559Z" fill="black"></path>
<path fill-rule="evenodd" clip-rule="evenodd" d="M6.07152 6.5714C7.51942 5.1235 10.2489 4.61998 14.1286 5.74064C15.0935 6.01936 16.1016 5.4631 16.3803 4.4982C16.659 3.5333 16.1028 2.52516 15.1379 2.24644C10.7745 0.986063 6.34838 1.15098 3.49974 3.99962C0.48804 7.0113 0.47114 11.7777 1.98664 16.4175C3.53734 21.1652 6.84708 26.377 11.4831 31.013C12.4772 32.007 13.4959 32.9384 14.5289 33.8034C15.2989 34.4482 16.4458 34.3466 17.0906 33.5766C17.7354 32.8066 17.6338 31.6596 16.8639 31.0148C15.9135 30.219 14.9738 29.36 14.0548 28.4412C9.73696 24.1232 6.78262 19.3868 5.44392 15.2882C4.07004 11.082 4.5384 8.10452 6.07152 6.5714ZM25.0648 9.54234C24.4164 10.3094 24.5126 11.4568 25.2796 12.1051C26.1798 12.8659 27.0698 13.6834 27.9412 14.5547C32.2592 18.8726 35.2134 23.6092 36.5522 27.7076C37.926 31.914 37.4576 34.8914 35.9246 36.4244C34.369 37.98 31.325 38.4376 27.0332 36.9942C26.0814 36.674 25.05 37.1862 24.73 38.1382C24.4098 39.0902 24.922 40.1214 25.874 40.4416C30.5858 42.0262 35.4422 42.0504 38.4964 38.9962C41.508 35.9846 41.525 31.2182 40.0094 26.5784C38.4588 21.8308 35.149 16.6189 30.513 11.9829C29.5704 11.0403 28.6056 10.1541 27.6276 9.32736C26.8604 8.67904 25.713 8.77528 25.0648 9.54234Z" fill="black"></path>
</g>
<defs>
<clipPath id="clip0_45_1195">
<rect width="41" height="41" fill="white" transform="translate(0 0.5)"></rect>
</clipPath>
</defs>
</svg></svg></g></g></svg></g><g id="dark-icon"><svg xmlns="http://www.w3.org/2000/svg" version="1.1" xmlns:xlink="http://www.w3.org/1999/xlink" width="1000" height="1000"><g><g transform="matrix(23.80952380952381,0,0,23.80952380952381,11.90476190476187,0)"><svg xmlns="http://www.w3.org/2000/svg" version="1.1" xmlns:xlink="http://www.w3.org/1999/xlink" width="41" height="42"><svg width="41" height="42" viewBox="0 0 41 42" fill="none" xmlns="http://www.w3.org/2000/svg">
<g clip-path="url(#clip0_64_1137)">
<path opacity="0.4" fill-rule="evenodd" clip-rule="evenodd" d="M27.2077 5.94368C23.1091 7.28236 18.3727 10.2367 14.0547 14.5546C13.4658 15.1435 12.9016 15.7409 12.3627 16.3443C11.6937 17.0934 10.5441 17.1583 9.79502 16.4894C9.04592 15.8204 8.98099 14.6708 9.64997 13.9217C10.2345 13.2671 10.8458 12.6199 11.4829 11.9828C16.1189 7.34682 21.3307 4.0371 26.0785 2.48638C30.7183 0.9709 35.4847 0.987799 38.4963 3.9995C41.1343 6.63744 41.4669 10.6378 40.5113 14.6455C40.2783 15.6225 39.2975 16.2256 38.3205 15.9927C37.3435 15.7597 36.7405 14.7789 36.9735 13.8019C37.7995 10.3376 37.2639 7.91066 35.9245 6.57128C34.3915 5.03816 31.4139 4.56978 27.2077 5.94368ZM3.9982 26.1156C4.9631 26.3942 5.51936 27.4024 5.24064 28.3674C4.11998 32.247 4.62348 34.9764 6.0714 36.4244C7.60452 37.9574 10.582 38.4258 14.7882 37.052C18.8867 35.7132 23.6233 32.759 27.9411 28.441C28.5301 27.8522 29.0943 27.2548 29.6331 26.6514C30.3021 25.9022 31.4517 25.8372 32.2009 26.5062C32.9499 27.1752 33.0149 28.3248 32.3459 29.074C31.7613 29.7286 31.1501 30.3756 30.5129 31.0128C25.8769 35.6488 20.6651 38.9586 15.9175 40.5092C11.2777 42.0248 6.5113 42.0078 3.4996 38.9962C0.650984 36.1476 0.486064 31.7214 1.74644 27.358C2.02516 26.3932 3.0333 25.8368 3.9982 26.1156Z" fill="white"></path>
<path fill-rule="evenodd" clip-rule="evenodd" d="M23.5333 14.6559C24.3001 15.3045 24.3959 16.4519 23.7475 17.2188L22.1707 19.0828C21.9519 19.3416 21.8425 19.471 21.8913 19.5764C21.9403 19.6818 22.1107 19.6816 22.4513 19.6814C22.7759 19.6812 23.1745 19.6808 23.5049 19.7232C23.8039 19.7614 24.6975 19.8994 25.2297 20.7588C25.8349 21.7366 25.4097 22.6662 25.2345 22.987C25.0477 23.3288 24.8069 23.6542 24.5541 23.951L20.9931 28.1344C20.3421 28.899 19.1943 28.9914 18.4295 28.3402C17.6649 27.6892 17.5725 26.5416 18.2237 25.7768L19.8573 23.8574C20.0315 23.6528 20.1187 23.5506 20.1007 23.4636C20.0951 23.4362 20.0831 23.4106 20.0659 23.3886C20.0113 23.3184 19.8771 23.3184 19.6083 23.3184C19.2727 23.3184 18.8397 23.3222 18.4851 23.2768C16.8874 23.0726 15.963 21.4636 16.7556 20.0128C16.9415 19.6728 17.1819 19.3494 17.4323 19.0534L20.9705 14.87C21.6191 14.1032 22.7665 14.0073 23.5333 14.6559Z" fill="white"></path>
<path fill-rule="evenodd" clip-rule="evenodd" d="M6.07152 6.5714C7.51942 5.1235 10.2489 4.61998 14.1286 5.74064C15.0935 6.01936 16.1016 5.4631 16.3803 4.4982C16.659 3.5333 16.1028 2.52516 15.1379 2.24644C10.7745 0.986063 6.34838 1.15098 3.49974 3.99962C0.48804 7.0113 0.47114 11.7777 1.98664 16.4175C3.53734 21.1652 6.84708 26.377 11.4831 31.013C12.4772 32.007 13.4959 32.9384 14.5289 33.8034C15.2989 34.4482 16.4458 34.3466 17.0906 33.5766C17.7354 32.8066 17.6338 31.6596 16.8639 31.0148C15.9135 30.219 14.9738 29.36 14.0548 28.4412C9.73696 24.1232 6.78262 19.3868 5.44392 15.2882C4.07004 11.082 4.5384 8.10452 6.07152 6.5714ZM25.0648 9.54234C24.4164 10.3094 24.5126 11.4568 25.2796 12.1051C26.1798 12.8659 27.0698 13.6834 27.9412 14.5547C32.2592 18.8726 35.2134 23.6092 36.5522 27.7076C37.926 31.914 37.4576 34.8914 35.9246 36.4244C34.369 37.98 31.325 38.4376 27.0332 36.9942C26.0814 36.674 25.05 37.1862 24.73 38.1382C24.4098 39.0902 24.922 40.1214 25.874 40.4416C30.5858 42.0262 35.4422 42.0504 38.4964 38.9962C41.508 35.9846 41.525 31.2182 40.0094 26.5784C38.4588 21.8308 35.149 16.6189 30.513 11.9829C29.5704 11.0403 28.6056 10.1541 27.6276 9.32736C26.8604 8.67904 25.713 8.77528 25.0648 9.54234Z" fill="white"></path>
</g>
<defs>
<clipPath id="clip0_64_1137">
<rect width="41" height="41" fill="white" transform="translate(0 0.5)"></rect>
</clipPath>
</defs>
</svg></svg></g></g></svg></g></svg>