<svg width="512" height="512" viewBox="0 0 512 512" fill="none" xmlns="http://www.w3.org/2000/svg">
  <rect width="512" height="512" rx="48" fill="#000000" />
  <path d="M119.026 272.11C105.88 274.109 95.472 278.856 87.801 286.354C77.061 296.575 71.125 311.908 69.995 332.351L63.926 416.479C63.311 425.004 70.061 432.258 78.608 432.258H124.314C132.132 432.258 138.587 426.146 139.012 418.34L142.917 346.694C143.765 333.505 147.157 323.778 153.092 317.513C158.745 311.248 168.779 308.116 183.194 308.116H224.862C232.991 308.116 239.582 314.706 239.582 322.836V417.538C239.582 425.668 246.172 432.258 254.302 432.258H278.741C286.871 432.258 293.461 425.668 293.461 417.538V95.818C293.461 87.689 286.871 81.098 278.741 81.098H175.563C153.234 81.098 133.873 85.385 117.479 93.957C100.803 102.53 87.943 114.73 78.898 130.557C69.853 146.055 65.331 164.354 65.331 185.457C65.331 201.943 68.158 216.451 73.811 228.981C79.463 241.511 87.377 251.897 97.553 260.14C103.897 265.215 111.054 269.205 119.026 272.11ZM293.461 237.884H187.01C172.03 237.884 160.583 234.092 152.668 226.508C144.754 218.924 140.797 208.208 140.797 194.36C140.797 180.181 144.896 169.465 153.092 162.211C161.006 154.957 172.595 151.33 187.858 151.33H293.461V237.884Z" fill="#FFFFFF" />
  <path d="M393.15 272.11C406.296 274.109 416.704 278.856 424.374 286.354C435.115 296.575 441.051 311.908 442.181 332.351L448.25 416.479C448.865 425.004 442.115 432.258 433.568 432.258H387.862C380.044 432.258 373.589 426.146 373.164 418.34L369.259 346.694C368.411 333.505 365.019 323.778 359.083 317.513C353.431 311.248 343.397 308.116 328.982 308.116H287.314C279.184 308.116 272.594 314.706 272.594 322.836V417.538C272.594 425.668 266.004 432.258 257.874 432.258H235.233C227.103 432.258 220.513 425.668 220.513 417.538L220.513 95.818C220.513 87.689 227.103 81.098 235.233 81.098H336.613C358.942 81.098 378.303 85.385 394.697 93.957C411.373 102.53 424.233 114.73 433.278 130.557C442.322 146.055 446.845 164.354 446.845 185.457C446.845 201.943 444.018 216.451 438.365 228.981C432.712 241.511 424.798 251.897 414.623 260.14C408.279 265.215 401.122 269.205 393.15 272.11ZM220.513 237.884H325.166C340.146 237.884 351.593 234.092 359.507 226.508C367.422 218.924 371.379 208.208 371.379 194.36C371.379 180.181 367.28 169.465 359.083 162.211C351.169 154.957 339.581 151.33 324.318 151.33H220.513L220.513 237.884Z" fill="#FFFFFF" />
</svg>