<svg width="512" height="512" viewBox="0 0 512 512" fill="none" xmlns="http://www.w3.org/2000/svg">
  <rect width="512" height="512" rx="48" fill="#FFFFFF" />
  <path d="M136.904 270.098C125.473 271.835 116.423 275.964 109.752 282.483C100.413 291.372 95.251 304.704 94.268 322.481L88.991 395.636C88.456 403.049 94.326 409.357 101.758 409.357H141.503C148.301 409.357 153.914 404.042 154.284 397.253L157.679 334.953C158.417 323.484 161.366 315.026 166.527 309.578C171.443 304.131 180.168 301.407 192.703 301.407H228.935C236.005 301.407 241.735 307.137 241.735 314.207V396.557C241.735 403.626 247.466 409.357 254.535 409.357H275.787C282.856 409.357 288.587 403.626 288.587 396.557V116.8C288.587 109.731 282.856 104 275.787 104H186.067C166.65 104 149.814 107.727 135.559 115.182C121.058 122.637 109.875 133.245 102.01 147.008C94.145 160.484 90.213 176.397 90.213 194.747C90.213 209.083 92.671 221.699 97.586 232.594C102.502 243.489 109.384 252.521 118.232 259.689C123.748 264.102 129.972 267.571 136.904 270.098ZM288.587 240.335H196.021C182.994 240.335 173.04 237.038 166.159 230.444C159.277 223.849 155.836 214.531 155.836 202.488C155.836 190.159 159.4 180.841 166.527 174.533C173.409 168.225 183.486 165.071 196.758 165.071H288.587V240.335Z" fill="#000000" />
  <path d="M375.273 270.098C386.704 271.835 395.754 275.964 402.425 282.483C411.764 291.372 416.926 304.704 417.909 322.481L423.186 395.636C423.721 403.049 417.851 409.357 410.419 409.357H370.675C363.876 409.357 358.264 404.042 357.894 397.253L354.498 334.953C353.761 323.484 350.811 315.026 345.65 309.578C340.734 304.131 332.009 301.407 319.474 301.407H283.242C276.172 301.407 270.442 307.137 270.442 314.207V396.557C270.442 403.626 264.711 409.357 257.642 409.357H237.954C230.885 409.357 225.154 403.626 225.154 396.557L225.154 116.8C225.154 109.731 230.884 104 237.954 104H326.11C345.527 104 362.363 107.727 376.618 115.182C391.119 122.637 402.302 133.245 410.167 147.008C418.032 160.484 421.964 176.397 421.964 194.747C421.964 209.083 419.506 221.699 414.591 232.594C409.675 243.489 402.793 252.521 393.945 259.689C388.429 264.102 382.205 267.571 375.273 270.098ZM225.154 240.335H316.156C329.183 240.335 339.137 237.038 346.019 230.444C352.9 223.849 356.341 214.531 356.341 202.488C356.341 190.159 352.777 180.841 345.65 174.533C338.768 168.225 328.691 165.071 315.419 165.071H225.154L225.154 240.335Z" fill="#000000" />
</svg>